# xmcd CD database file
#
# Track frame offsets:
#	150
#	19020
#	24475
#	41492
#	60802
#	72535
#	94450
#	107032
#	124352
#	139100
#	151035
#	166722
#	180762
#	196247
#	215477
#	239912
#	255180
#	285760
#	303892
#
# Disc length: 4323 seconds
#
# Revision: 2
# Processed by: cddbd v1.4PL0 Copyright (c) Steve Scherf et al.
# Submitted via: CDex 1.51
#
DISCID=f410e113
DTITLE=Billy Preston - Billy Preston
DYEAR=1988
DGENRE=R&B
TTITLE0=Outa Space
TTITLE1=Everybody Likes Some Kind Of Music
TTITLE2=Will It Go Round In Circles
TTITLE3=That's The Way God Planned It
TTITLE4=Struttin'
TTITLE5=You Are So Beautiful
TTITLE6=Blackbird
TTITLE7=It's Alright Ma (i'm Only Bleeding)
TTITLE8=Get Back
TTITLE9=Nothing From Nothing
TTITLE10=Space Race
TTITLE11=I'm Really Gonna Miss You
TTITLE12=I Wrote A Simple Song
TTITLE13=Swing Down Sweet Chariot
TTITLE14=Make The Devil Mad (Turn On To Jesus)
TTITLE15=Song Of Joy
TTITLE16=Do It While You Can
TTITLE17=Music Is My Life
TTITLE18=My Country 'tis Of Thee
EXTD=YEAR: 1988
EXTT0=
EXTT1=
EXTT2=
EXTT3=
EXTT4=
EXTT5=
EXTT6=
EXTT7=
EXTT8=
EXTT9=
EXTT10=
EXTT11=
EXTT12=
EXTT13=
EXTT14=
EXTT15=
EXTT16=
EXTT17=
EXTT18=
PLAYORDER=
